<svg height="500pt" preserveAspectRatio="xMidYMid meet" viewBox="0 0 500 500" width="500pt" xmlns="http://www.w3.org/2000/svg"><path d="m1895 4980c-158-34-291-132-364-270-24-45-89-277-136-487-3-15-37-44-93-82-419-282-732-683-890-1141-138-402-161-850-65-1255 110-466 364-887 718-1193 355-305 795-494 1264-543 213-22 600 4 681 46 44 23 73 71 78 129 3 42-20 141-133 560-75 279-134 510-131 513s238-40 523-97c285-56 552-104 593-107 213-15 408 62 570 226 159 160 229 330 230 552 0 158-54 318-150 444-21 28-277 325-570 660-292 336-534 615-537 622-4 10 311 392 808 981 99 117 118 162 98 235-29 111-139 178-237 144-32-11-319-176-1097-632-98-57-131-75-139-75-3 0-111 123-242 273-351 403-383 433-510 478-66 23-206 33-269 19zm1218-1643c90-38 147-129 147-234 0-117-60-149-270-141-91 3-122 7-147 23-114 68-59 286 87 349 44 19 140 20 183 3z" transform="matrix(.1 0 0 -.1 0 500)"/></svg>